<svg xmlns="http://www.w3.org/2000/svg" xmlns:xlink="http://www.w3.org/1999/xlink" width="24" height="24" preserveAspectRatio="xMidYMid meet" viewBox="0 0 24 24" style="-ms-transform: rotate(360deg); -webkit-transform: rotate(360deg); transform: rotate(360deg);"><path d="M14.228 15.228l-4.243-4.243-5.657 5.657 2.122 2.121a3 3 0 0 0 4.242 0l3.536-3.535zM12.784 19.5H15.5a1 1 0 0 1 0 2h-11a1 1 0 0 1-.133-1.991l-1.453-1.453a2 2 0 0 1 0-2.828L14.228 3.914a2 2 0 0 1 2.828 0L21.3 8.157a2 2 0 0 1 0 2.828L12.784 19.5z" fill="white"/><rect x="0" y="0" width="24" height="24" fill="rgba(0, 0, 0, 0)" /></svg>